<svg width="128" height="103" viewBox="0 0 128 103" fill="none" xmlns="http://www.w3.org/2000/svg">
<path d="M0 102.617L11.907 73.8223H18.0131L29.9583 102.617H23.4705L13.7007 77.1954H16.1431L6.33512 102.617H0ZM5.95349 96.4465L7.59452 91.3869H21.3333L23.0125 96.4465H5.95349Z" fill="#0D1940"/>
<path d="M32.3654 102.617V72.0947H38.3189V102.617H32.3654Z" fill="#0D1940"/>
<path d="M89.0323 102.628L100.939 73.8332H107.045L118.991 102.628H112.503L102.733 77.2062H105.175L95.3674 102.628H89.0323ZM94.9858 96.4573L96.6268 91.3977H110.366L112.045 96.4573H94.9858Z" fill="#0D1940"/>
<path d="M121.818 102.628V73.8332H128V102.628H121.818Z" fill="#0D1940"/>
<path d="M75.4384 81.7191C76.9561 81.7191 78.3078 82.0514 79.4935 82.716C80.703 83.355 81.6516 84.3519 82.3393 85.7066C83.027 87.0358 83.3709 88.7484 83.3709 90.8444V102.654H77.8217V91.7646C77.8217 90.1031 77.4778 88.8762 76.7901 88.0838C76.1261 87.2914 75.1775 86.8952 73.9443 86.8952C73.0669 86.8952 72.2725 87.0997 71.561 87.5087C70.8733 87.8921 70.3279 88.4928 69.9247 89.3107C69.5453 90.1287 69.3556 91.1767 69.3556 92.4547V102.654H63.8064V82.0258H69.1066V87.7387L68.1106 86.0134C68.7983 84.6331 69.7825 83.5723 71.063 82.831C72.3436 82.0897 73.8021 81.7191 75.4384 81.7191Z" fill="#0D1940"/>
<path d="M48.4943 103C47.1287 103 45.8702 102.734 44.7188 102.202C43.5942 101.644 42.6972 100.899 42.0278 99.9681C41.3852 99.0372 41.0638 98.0133 41.0638 96.8963C41.0638 95.0878 41.8002 93.625 43.2729 92.508C44.7456 91.391 46.7672 90.633 49.3378 90.234L54.8403 89.4362V88.5984C54.8403 87.4282 54.5458 86.5505 53.9567 85.9654C53.3676 85.3803 52.4171 85.0878 51.105 85.0878C50.2214 85.0878 49.4984 85.2606 48.9361 85.6064C48.4006 85.9255 47.9722 86.2447 47.6508 86.5638C47.3295 86.9096 46.9395 87.6144 46.8324 87.7207H42.4294C42.4294 87.4125 42.4103 87.2659 42.4294 86.7901C42.4562 86.1252 42.7775 85.4202 43.3934 84.5692C44.036 83.7181 45.0134 82.9867 46.3254 82.375C47.6375 81.7633 49.244 81.4575 51.1452 81.4575C54.3048 81.4575 56.9516 82.1622 58.3975 83.5718C59.8435 84.9814 60.5664 86.8298 60.5664 89.117V101.644C60.5664 101.91 60.5664 102.601 60.5664 102.601H55.0411C55.0411 102.601 55.0411 101.91 55.0411 101.644V100.088C54.4521 100.939 53.6086 101.644 52.5108 102.202C51.4397 102.734 50.1009 103 48.4943 103ZM49.8599 99.2101C51.3326 99.2101 52.5375 98.7314 53.4747 97.7739C54.4119 96.8165 54.8805 95.4202 54.8805 93.5851V92.7473L50.864 93.3856C49.311 93.625 48.1328 94.0106 47.3295 94.5426C46.553 95.0745 46.1648 95.7261 46.1648 96.4973C46.1648 97.3484 46.5262 98.0133 47.2492 98.492C47.9722 98.9707 48.8424 99.2101 49.8599 99.2101Z" fill="#0D1940"/>
<path d="M77.1318 0.000488281H51.39L18.9744 62.9516H44.0011L77.1318 0.000488281Z" fill="url(#paint0_linear_189_1222)"/>
<path d="M76.3392 62.9516L64.4217 40.4691H30.5259L18.9547 62.9516H76.3392Z" fill="url(#paint1_linear_189_1222)"/>
<path d="M43.9988 62.9516L55.8307 40.4691H30.5451L18.9739 62.9516H43.9988Z" fill="url(#paint2_linear_189_1222)"/>
<path d="M51.3401 0H77.0819L109.498 62.9511H84.4708L51.3401 0Z" fill="url(#paint3_linear_189_1222)"/>
<defs>
<linearGradient id="paint0_linear_189_1222" x1="33.4591" y1="75.0808" x2="7.77128" y2="13.4965" gradientUnits="userSpaceOnUse">
<stop stop-color="#1970E3"/>
<stop offset="1" stop-color="#115FC6"/>
</linearGradient>
<linearGradient id="paint1_linear_189_1222" x1="86.2551" y1="46.3474" x2="80.4264" y2="73.7375" gradientUnits="userSpaceOnUse">
<stop stop-color="#62BBFF"/>
<stop offset="1" stop-color="#009DFF"/>
</linearGradient>
<linearGradient id="paint2_linear_189_1222" x1="26.1146" y1="65.9859" x2="22.2329" y2="42.507" gradientUnits="userSpaceOnUse">
<stop stop-color="#32BEFF"/>
<stop offset="1" stop-color="#5ECCFF"/>
</linearGradient>
<linearGradient id="paint3_linear_189_1222" x1="38.6509" y1="16.4594" x2="73.0165" y2="77.1727" gradientUnits="userSpaceOnUse">
<stop stop-color="#62BBFF"/>
<stop offset="1" stop-color="#009DFF"/>
</linearGradient>
</defs>
</svg>
